<svg width="50" height="50" viewBox="0 0 50 50" fill="none" xmlns="http://www.w3.org/2000/svg">
<path fill-rule="evenodd" clip-rule="evenodd" d="M21.7601 4.5169C23.6755 3.06207 26.3256 3.06207 28.241 4.51693L30.5983 6.30754C37.5229 11.5674 43.4547 18.0186 48.1165 25.3591L48.8729 26.5498C50.3829 28.9275 48.6747 32.0359 45.8579 32.0359H43.389C43.5318 35.3183 43.3526 38.6107 42.8511 41.8653C42.3533 45.0996 39.5704 47.4868 36.2979 47.4868H29.4647V35.7139C29.4647 33.2484 27.466 31.2496 25.0004 31.2496C22.5348 31.2496 20.5361 33.2484 20.5361 35.7139V47.4868H13.7031C10.4308 47.4868 7.64785 45.0996 7.14981 41.8653C6.6486 38.6107 6.46924 35.3183 6.6121 32.0359H4.14263C1.32592 32.0359 -0.382249 28.9275 1.12784 26.5498L1.88419 25.3588C6.54595 18.0185 12.4781 11.5674 19.4025 6.30772L21.7601 4.5169Z" fill="#8C0C0C"/>
</svg>
